<?xml version='1.0' encoding='utf-8'?>
<svg xmlns="http://www.w3.org/2000/svg" id="guard_cell_output" version="1.1" viewBox="-78.0592043276468 -82.1834140404951 264.667608297462 279.67973165223" author="Steven QiaoggPlantmap">
   <g id="D0_guard_cell">
      <path d="M54.6 32.66 L54.6 25.9 L55.76 20.95 L58.23 17.82 L62.19 18.97 L68.3 23.26 L73.58 28.54 L78.36 33.82 L82.15 40.09 L85.45 48.5 L86.61 55.43 L86.44 63.02 L85.12 71.27 L81.49 78.36 L77.21 84.63 L72.59 89.74 L65.82 94.69 L60.87 96.67 L56.58 96.84 L55.26 92.55 L55.43 83.14 L55.76 75.23 L60.21 70.28 L63.35 66.65 L64.67 60.87 L64.67 55.26 L63.84 50.65 L60.21 47.35 L57.08 43.39 L54.6 38.77 Z" id="1" fill="none" stroke="#000" stroke-width="4" stroke-linecap="butt" stroke-linejoin="miter" stroke-opacity="1" />
      <path d="M53.45 29.03 L53.28 33.82 L52.95 38.11 L51.97 41.41 L48.5 45.7 L45.04 50.65 L43.55 56.91 L43.88 62.69 L46.36 68.13 L49.49 71.76 L51.64 75.06 L52.29 80.17 L52.29 85.62 L52.79 90.07 L52.29 94.36 L50.65 97.5 L46.69 97 L41.9 95.19 L37.12 91.39 L32.83 87.93 L28.04 81.99 L24.91 73.74 L22.93 65.49 L21.94 58.73 L22.44 51.31 L24.91 41.74 L29.69 34.15 L35.47 27.38 L39.59 23.59 L44.21 19.96 L49.33 18.64 L52.95 22.11 Z" id="2" fill="none" stroke="#000" stroke-width="4" stroke-linecap="butt" stroke-linejoin="miter" stroke-opacity="1" />
   </g>
</svg>