<?xml version='1.0' encoding='utf-8'?>
<svg xmlns="http://www.w3.org/2000/svg" id="epidermal_cell_output" version="1.1" viewBox="-89.3861237723397 -95.1427402619715 275.237775976658 291.427173445653" author="Steven QiaoggPlantmap">
   <g id="W15_epidermal_cell">
      <path d="M16.19 10.52 L19.83 7.08 L24.08 4.86 L29.55 5.46 L34.61 7.69 L39.06 10.12 L43.92 12.35 L48.57 12.95 L51.08 10.77 L54.04 8.14 L57.82 6.91 L60.78 7.9 L62.67 9.05 L64.57 10.86 L66.38 13.16 L66.87 15.3 L66.62 17.27 L66.05 20.15 L64.73 21.96 L62.92 24.26 L60.37 26.9 L57.9 29.61 L55.19 32 L52.23 33.64 L49.6 35.12 L47.54 36.52 L45.32 38.82 L45.24 41.45 L45.16 44.5 L45.65 47.52 L47.99 51.01 L50.11 53.41 L52.77 55.82 L55.56 57.3 L59.03 57.58 L61.7 55.32 L64.11 52.53 L66.53 48.94 L68.8 46.28 L71.35 43.62 L73.09 41.5 L76.29 41.51 L79.48 43.39 L81.61 44.59 L84.14 46.34 L85.73 48.48 L85.85 51.14 L85.04 53.01 L82.64 55.4 L80.76 57.53 L79.15 59.65 L76.61 63.24 L74.86 66.84 L74.71 70.97 L76.97 73.91 L78.03 76.98 L77.21 80.45 L74.8 82.7 L71.47 84.03 L68.89 84.25 L66.39 84.34 L62.39 84.33 L57.79 84.01 L55.49 85.8 L55.05 96 L50.55 96.28 L48.15 95.88 L45.66 94.47 L42.16 92.65 L38.77 90.74 L35.78 88.43 L32.89 86.12 L30.59 83.81 L28.2 81.2 L27.01 78.4 L27.72 75.5 L29.23 73.91 L30.84 71.81 L31.75 67.82 L29.96 64.71 L27.42 62.7 L25.03 60.59 L22.14 58.98 L19.84 57.47 L16.45 55.16 L14.26 51.35 L14.78 47.55 L16.19 45.16 L16.79 41.2 L18.42 38.04 L16.93 35.69 L14.93 32.68 L12.6 30.5 L10.94 28.65 L10.61 25.47 L10.79 21.63 L12.65 17.96 L14.33 14.12 Z" id="1" fill="none" stroke="#000" stroke-width="4" stroke-linecap="butt" stroke-linejoin="miter" stroke-opacity="1" />
   </g>
</svg>