<?xml version='1.0' encoding='utf-8'?>
<svg xmlns="http://www.w3.org/2000/svg" id="vascular_output" version="1.1" viewBox="-13.5880362837364 -70.884290329584 543.210730673383 569.856583097305" author="Steven QiaoggPlantmap">
   <g id="W0_BSC">
      <path d="M109.11 114.52 L117.77 102.07 L125.08 92.59 L135.1 86.09 L141.87 87.99 L148.36 91.51 L155.67 98.55 L162.98 105.59 L170.56 115.87 L174.62 124 L176.79 134.01 L173.54 143.49 L167.86 152.15 L161.36 159.19 L153.24 160.82 L143.49 160.28 L133.74 157.3 L125.35 154.05 L116.69 150.26 L109.38 146.47 L103.42 141.87 L102.88 135.1 L103.96 125.89 L106.67 120.21 Z" id="1" fill="none" stroke="#000" stroke-width="4" stroke-linecap="butt" stroke-linejoin="miter" stroke-opacity="1" />
      <path d="M336.54 119.46 L339.67 113.84 L344.18 107.66 L348.41 102.72 L353.33 97.37 L359.2 90.64 L365.35 85.15 L373.56 81.43 L381.64 83.19 L387.13 88.38 L393.18 95.07 L397.03 101.5 L400.88 107.79 L404.73 114.36 L407.21 119.69 L408.59 125.03 L408.47 130.78 L406.16 136.4 L400.28 140.94 L393.58 144.38 L386.46 147.69 L378.8 149.9 L371.27 151.7 L363.47 152.54 L355.57 152.44 L347.05 149.34 L341.53 145.22 L337.89 139.97 L334.12 132.35 L333.97 125.21 Z" id="10" fill="none" stroke="#000" stroke-width="4" stroke-linecap="butt" stroke-linejoin="miter" stroke-opacity="1" />
      <path d="M297.64 104.48 L302.85 108.27 L307.85 111.06 L312.86 113.05 L318.06 112.83 L322.85 111.82 L329.45 108.6 L335.04 104.59 L340.82 97.57 L347 90.76 L352.18 82.94 L356.96 75.33 L358.34 68.93 L357.73 64.33 L354.92 60.34 L349.91 55.15 L343.69 49.57 L335.48 43.39 L329.87 40.8 L323.86 37.82 L317.06 34.83 L310.66 35.65 L306.66 36.86 L302.07 39.07 L299.48 43.48 L296.5 50.09 L293.52 59.1 L291.35 69.3 L290.17 78.1 L289.79 88.7 L291.42 98.5 L294.23 101.69 Z" id="11" fill="none" stroke="#000" stroke-width="4" stroke-linecap="butt" stroke-linejoin="miter" stroke-opacity="1" />
      <path d="M278.39 87.27 L274.18 93.09 L268.86 98.43 L262.73 100.31 L257 100.6 L253.53 100.74 L248.6 99.42 L242.86 96.23 L237.64 90.38 L232.55 81.86 L228.93 74.27 L225.31 63.74 L223.27 51.22 L222.58 42.02 L224.46 35.25 L229.38 32.96 L236.45 30.55 L243.65 29.52 L251.86 29.12 L259.44 29.22 L266.01 29.46 L272.59 30.33 L278.66 32.33 L284.35 34.84 L286.51 39.51 L286.91 46.72 L285.67 58.22 L284.69 68.71 L282.44 78.95 Z" id="12" fill="none" stroke="#000" stroke-width="4" stroke-linecap="butt" stroke-linejoin="miter" stroke-opacity="1" />
      <path d="M195.95 117.18 L201.29 116.42 L206.62 113.74 L212.21 110.8 L216.07 107.99 L221.26 104.51 L222.85 99.57 L222.83 94.64 L222.29 88.77 L221.87 80.77 L220.25 73.71 L218.5 67.98 L216.75 61.58 L214.46 53.99 L211.65 47.33 L208.7 43.47 L206.03 40.41 L198.09 40.56 L191.13 42.7 L184.62 46.05 L176.75 49.86 L170.55 53.06 L164.34 56.56 L156.48 62.03 L152.55 67.19 L151.35 72.35 L152.58 79.01 L157.76 87.94 L165.05 96.1 L172.95 103.5 L181 110.76 Z" id="13" fill="none" stroke="#000" stroke-width="4" stroke-linecap="butt" stroke-linejoin="miter" stroke-opacity="1" />
      <path d="M98.55 158.38 L112.36 158.38 L122.37 161.63 L129.14 164.61 L137.53 168.13 L145.39 171.65 L152.19 176.38 L154.94 185.74 L155.53 191.95 L155.08 199.44 L153.59 207.95 L146.54 212.88 L136.28 218.54 L128.5 220.26 L121.72 221.57 L112.93 222.24 L105.9 223.65 L97.65 223.52 L90.52 218.24 L87.49 210.12 L86.41 200.32 L86.69 190.27 L87.1 178.4 L89.19 169.94 L91.95 162.37 Z" id="2" fill="none" stroke="#000" stroke-width="4" stroke-linecap="butt" stroke-linejoin="miter" stroke-opacity="1" />
      <path d="M101.88 238.8 L108.54 235.27 L117.93 231.16 L125.15 229.01 L136.61 227.3 L150.07 227.19 L158.4 229.73 L164.99 235.94 L170.02 243.61 L170.84 253.54 L169.53 263.53 L164.06 270.63 L158.91 277.87 L151.62 283.82 L144.14 287.96 L137.08 293.82 L128.38 297.65 L121.94 293.8 L116.19 288.32 L109.76 279.87 L104.58 269.84 L100.7 260.35 L98.33 248.62 Z" id="3" fill="none" stroke="#000" stroke-width="4" stroke-linecap="butt" stroke-linejoin="miter" stroke-opacity="1" />
      <path d="M131.56 313.64 L136.66 306.96 L143.17 302.41 L149.26 297.48 L157.3 293.38 L165.77 289.65 L173.6 286.99 L180.51 286.05 L187.43 286.46 L193.12 289.81 L198.77 295.06 L203.64 300.36 L205.16 310 L204.24 317.67 L201.8 326.23 L197.5 334.2 L192.87 342.04 L188.65 348.9 L181.32 355.41 L173.65 360.43 L165.79 357.71 L155.89 350.68 L145.09 340.79 L135.94 328.32 L131.99 321.3 Z" id="4" fill="none" stroke="#000" stroke-width="4" stroke-linecap="butt" stroke-linejoin="miter" stroke-opacity="1" />
      <path d="M191.11 372.74 L191.57 365.26 L194.9 358.23 L198.15 352.31 L203.66 344.65 L209.59 337.36 L216.56 331.27 L223.57 325.97 L229.97 324.44 L235.73 325.32 L240.76 327.04 L247.84 329.82 L253.68 335.53 L256.85 342.61 L256.7 353.48 L256.38 365.22 L256.69 375.9 L254.3 385.25 L250.78 391.82 L244.05 397.82 L231.88 397.12 L222.17 396.5 L213.09 393.46 L205.27 390.18 L198.64 385.87 L193.73 381.12 Z" id="5" fill="none" stroke="#000" stroke-width="4" stroke-linecap="butt" stroke-linejoin="miter" stroke-opacity="1" />
      <path d="M273.7 336.26 L279.87 330.22 L285.61 327.07 L291.25 325.03 L299.93 324.45 L306.21 325.93 L311.68 330.72 L317.89 336.01 L322.96 343.12 L327.14 348.7 L331.47 356.66 L334.65 365.09 L335.62 375.19 L331.44 380.83 L325.85 385.86 L318.24 389.9 L310.97 393.87 L301.51 396.14 L292 398.97 L283.09 397.14 L274.56 387.26 L271.1 377.35 L270.05 366.9 L268.66 356.52 L269.55 345.82 Z" id="6" fill="none" stroke="#000" stroke-width="4" stroke-linecap="butt" stroke-linejoin="miter" stroke-opacity="1" />
      <path d="M329.4 334.52 L333.01 339.91 L336.63 345.1 L341.24 350.28 L345.25 353.87 L350.26 357.26 L354.86 358.05 L360.26 356.64 L367.25 352.82 L372.63 347.6 L377.02 343.19 L381.41 337.18 L384.99 331.57 L389.17 324.96 L392.16 320.15 L394.75 314.15 L394.13 307.55 L390.72 304.16 L385.11 298.97 L378.29 294.19 L372.89 291.4 L364.28 287.23 L357.07 285.04 L350.87 283.86 L343.67 283.88 L335.87 285.7 L329.88 289.91 L324.7 295.13 L320.91 300.54 L318.73 306.74 L318.54 312.34 L321.37 321.94 Z" id="7" fill="none" stroke="#000" stroke-width="4" stroke-linecap="butt" stroke-linejoin="miter" stroke-opacity="1" />
      <path d="M357.6 228.21 L365.21 225.14 L372.76 223.77 L383.31 223.05 L392.83 223.71 L398.37 225.08 L405.99 227.14 L411.89 229.72 L417.95 233.17 L421.08 239.91 L421.28 247.35 L418.7 256.19 L415.95 264.33 L412.69 272.47 L408.73 279.92 L404.24 285.99 L398.02 291.37 L391.1 291.22 L382.27 287.78 L372.91 282.61 L364.59 277.61 L358.86 270.88 L353.82 264.31 L350.69 257.4 L349.63 249.96 L351.51 241.13 Z" id="8" fill="none" stroke="#000" stroke-width="4" stroke-linecap="butt" stroke-linejoin="miter" stroke-opacity="1" />
      <path d="M422.23 215.36 L412.64 216.2 L405.5 216.42 L395.9 215.22 L386.31 213.2 L377.32 210.57 L369.56 207.12 L364.03 200.81 L361.57 196.12 L359.92 188.58 L359.9 181.84 L361.51 174.9 L365.78 168.15 L371.38 164.28 L376.47 161.07 L382.05 158.67 L387.94 155.78 L395.11 153.05 L400.85 151.76 L407.71 150.63 L413.45 150.61 L418.87 150.92 L423.03 154.26 L425.59 160.15 L428 166.52 L429.62 176.09 L429.34 188.37 L429.04 197.3 L428.11 208.47 Z" id="9" fill="none" stroke="#000" stroke-width="4" stroke-linecap="butt" stroke-linejoin="miter" stroke-opacity="1" />
   </g>
   <g id="W0_phloem">
      <path d="M175.62 214.45 L182.97 209.9 L189.77 208.18 L198.84 208.16 L207.06 210.12 L213.02 214.92 L214.74 221.15 L209.38 229.38 L202.59 233.36 L196.64 236.21 L187.86 237.65 L182.76 236.53 L176.23 232.87 L173.11 229.47 L172.24 222.11 Z" id="28" fill="none" stroke="#000" stroke-width="4" stroke-linecap="butt" stroke-linejoin="miter" stroke-opacity="1" />
      <path d="M232.55 206.09 L244.17 205.77 L254.64 203.2 L264.84 201.47 L276.74 201.44 L287.79 202.54 L292.05 207.07 L291.79 215 L289.27 225.49 L285.05 236.27 L280.82 244.5 L275.16 249.9 L269.5 252.18 L260.72 251.63 L253.05 245.42 L246.23 238.35 L239.12 228.74 L234.86 222.51 L230.87 215.72 Z" id="29" fill="none" stroke="#000" stroke-width="4" stroke-linecap="butt" stroke-linejoin="miter" stroke-opacity="1" />
      <path d="M303.69 215.82 L309.91 209.57 L316.42 205.87 L324.63 204.15 L333.98 205.26 L340.79 209.49 L346.76 214.29 L348.76 220.81 L347.93 227.89 L344.26 233.28 L338.03 237.27 L329.25 238.99 L320.75 239.58 L310.84 240.17 L304.03 237.92 L299.48 231.42 L300.03 223.48 Z" id="30" fill="none" stroke="#000" stroke-width="4" stroke-linecap="butt" stroke-linejoin="miter" stroke-opacity="1" />
      <path d="M320.5 249.78 L328.15 250.33 L333.26 252.58 L337.52 256.54 L341.78 260.49 L342.64 266.16 L340.39 272.11 L338.13 275.23 L333.32 277.23 L326.8 275.83 L321.97 272.44 L318.84 267.63 L316.56 261.41 L316.26 254.32 Z" id="31" fill="none" stroke="#000" stroke-width="4" stroke-linecap="butt" stroke-linejoin="miter" stroke-opacity="1" />
      <path d="M269.82 266.34 L277.18 261.79 L284.54 260.35 L295.31 260.33 L303.25 263.42 L309.5 270.21 L311.79 277.57 L313.22 284.93 L313.24 291.45 L311.56 300.8 L305.06 308.47 L296.29 312.18 L284.96 314.75 L276.74 313.36 L269.08 309.7 L263.69 304.61 L261.4 296.11 L261.37 287.05 L261.92 276.85 L264.17 270.32 Z" id="32" fill="none" stroke="#000" stroke-width="4" stroke-linecap="butt" stroke-linejoin="miter" stroke-opacity="1" />
      <path d="M194.98 250.38 L204.03 243.56 L213.36 237.59 L221.29 235.3 L229.79 236.69 L236.32 240.64 L241.72 246.86 L245.99 252.24 L250.25 258.74 L251.97 266.39 L249.44 274.61 L244.63 277.74 L235.01 281.17 L226.51 281.75 L218.01 281.49 L208.65 277.27 L200.14 272.19 L194.16 263.99 Z" id="33" fill="none" stroke="#000" stroke-width="4" stroke-linecap="butt" stroke-linejoin="miter" stroke-opacity="1" />
      <path d="M220.31 294.52 L228.52 292.52 L237.31 292.78 L244.68 296.16 L251.21 301.24 L251.23 308.04 L246.7 311.17 L239.91 313.45 L232.54 314.32 L226.31 313.77 L220.63 310.39 L216.08 303.88 L216.35 298.5 Z" id="34" fill="none" stroke="#000" stroke-width="4" stroke-linecap="butt" stroke-linejoin="miter" stroke-opacity="1" />
   </g>
   <g id="W0_xylem">
      <path d="M171.14 187.07 L177.84 185.24 L183.65 185.23 L189.64 185.76 L192.37 188.83 L192.56 194.28 L189.3 197.19 L183.5 199.02 L174.61 198.86 L169.35 197.78 L167.53 195.07 L167.7 190.89 Z" id="14" fill="none" stroke="#000" stroke-width="4" stroke-linecap="butt" stroke-linejoin="miter" stroke-opacity="1" />
      <path d="M275.24 107.71 L281.95 107.33 L287.94 107.86 L291.21 110.21 L293.76 112.93 L297.4 117.27 L297.06 127.07 L293.44 129.07 L289.08 129.99 L284.55 130 L278.92 128.93 L274.2 126.04 L271.11 122.42 L270.18 116.62 L270.53 111.72 Z" id="23" fill="none" stroke="#000" stroke-width="4" stroke-linecap="butt" stroke-linejoin="miter" stroke-opacity="1" />
      <path d="M224.12 115.34 L224.54 120.28 L225.38 125.43 L228.69 128.93 L232.61 130.57 L236.94 131.17 L241.68 131.57 L246.63 131.35 L250.74 130.11 L254.65 127.42 L257.74 124.32 L258.75 119.37 L258.54 115.87 L255.64 111.55 L250.9 108.88 L245.95 107.24 L241.2 106.84 L236.88 106.85 L231.31 107.9 L227.2 110.38 Z" id="24" fill="none" stroke="#000" stroke-width="4" stroke-linecap="butt" stroke-linejoin="miter" stroke-opacity="1" />
      <path d="M189.12 130.47 L193.24 127.37 L196.73 125.71 L201.47 124.05 L206.42 123.42 L211.78 125.05 L215.7 127.31 L216.95 131.84 L216.96 136.79 L213.88 140.92 L210.18 142.99 L207.09 144.23 L201.53 145.9 L195.96 145.7 L192.45 144.27 L189.98 142.01 L188.52 137.89 Z" id="25" fill="none" stroke="#000" stroke-width="4" stroke-linecap="butt" stroke-linejoin="miter" stroke-opacity="1" />
      <path d="M218.21 142.97 L222.13 141.52 L227.48 140.47 L232.63 140.66 L237.79 142.51 L240.48 146 L241.32 150.53 L240.5 153.83 L238.65 157.55 L235.36 160.03 L231.04 161.28 L224.86 162.53 L218.47 162.75 L214.75 158.85 L212.06 155.35 L212.87 147.93 Z" id="26" fill="none" stroke="#000" stroke-width="4" stroke-linecap="butt" stroke-linejoin="miter" stroke-opacity="1" />
      <path d="M174.55 156.06 L179.91 153.99 L184.23 152.33 L187.53 151.29 L192.68 151.28 L197.01 152.92 L199.28 155.18 L200.12 159.91 L199.72 166.1 L198.91 168.99 L196.85 171.88 L190.47 174.37 L183.47 176.24 L177.29 176.67 L171.72 175.24 L168.82 170.51 L170.04 163.91 Z" id="27" fill="none" stroke="#000" stroke-width="4" stroke-linecap="butt" stroke-linejoin="miter" stroke-opacity="1" />
      <path d="M210.28 172.1 L215.9 170.45 L220.25 170.08 L225.88 170.24 L230.59 170.05 L234.05 172.04 L237.14 174.93 L237.87 179.83 L236.44 185.09 L232.1 189.64 L226.48 192.74 L220.5 194.57 L215.24 194.4 L209.43 192.78 L205.97 189.71 L204.69 184.99 L204.86 178.64 Z" id="15" fill="none" stroke="#000" stroke-width="4" stroke-linecap="butt" stroke-linejoin="miter" stroke-opacity="1" />
      <path d="M250.71 163.65 L258.33 162 L265.04 162.34 L270.67 163.6 L274.3 166.67 L276.86 171.2 L277.41 175.01 L274.7 180.28 L270.18 183.74 L266.19 185.56 L260.75 185.57 L254.94 185.41 L247.31 181.98 L242.76 176.55 L243.29 171.11 L245.82 165.66 Z" id="16" fill="none" stroke="#000" stroke-width="4" stroke-linecap="butt" stroke-linejoin="miter" stroke-opacity="1" />
      <path d="M287.22 179.34 L292.47 178.42 L297.01 178.23 L304.45 177.84 L308.45 181.64 L309.18 186.54 L306.48 191.26 L301.58 193.27 L295.42 194.19 L289.07 193.12 L284.16 191.32 L280.71 187.34 L283.05 182.07 Z" id="17" fill="none" stroke="#000" stroke-width="4" stroke-linecap="butt" stroke-linejoin="miter" stroke-opacity="1" />
      <path d="M322.6 184.87 L330.22 183.94 L336.21 183.75 L340.92 184.1 L345.29 187.35 L345.66 192.79 L343.5 196.97 L338.96 197.89 L333.7 198.09 L328.08 197.74 L324.09 196.84 L321.17 193.22 L320.8 188.87 Z" id="18" fill="none" stroke="#000" stroke-width="4" stroke-linecap="butt" stroke-linejoin="miter" stroke-opacity="1" />
      <path d="M328.52 158.19 L334.32 155.82 L341.94 155.43 L347.57 158.5 L350.85 162.3 L352.85 166.83 L351.42 171.92 L346.53 175.2 L340.9 176.3 L333.28 175.77 L326.57 173.8 L324.56 168.18 L324.72 161.83 Z" id="19" fill="none" stroke="#000" stroke-width="4" stroke-linecap="butt" stroke-linejoin="miter" stroke-opacity="1" />
      <path d="M295 171.52 L302.98 172.4 L309.15 172.21 L312.77 169.3 L314.57 163.3 L313.28 157.87 L310.19 152.98 L307.46 151.71 L302.2 150.82 L297.12 150.11 L291.32 152.66 L286.61 156.85 L286.99 163.74 L289.55 169.54 Z" id="20" fill="none" stroke="#000" stroke-width="4" stroke-linecap="butt" stroke-linejoin="miter" stroke-opacity="1" />
      <path d="M268.29 154.35 L274.27 153.61 L279.52 150.51 L283.32 146.15 L283.12 139.98 L281.3 134.55 L275.85 131.3 L268.41 130.95 L261.33 131.7 L256.26 134.61 L251.02 140.25 L249.4 145.15 L250.31 149.68 L255.22 154.21 L261.58 155.28 Z" id="21" fill="none" stroke="#000" stroke-width="4" stroke-linecap="butt" stroke-linejoin="miter" stroke-opacity="1" />
      <path d="M304.49 126.14 L309.03 125.4 L313.38 125.39 L318.65 126.83 L322.1 130.09 L325.92 134.79 L328.29 139.69 L328.31 144.77 L324.51 147.86 L320.34 149.32 L314.9 149.7 L308.72 147.54 L305.09 145.01 L303.08 141.75 L301.8 136.31 L301.42 131.41 Z" id="22" fill="none" stroke="#000" stroke-width="4" stroke-linecap="butt" stroke-linejoin="miter" stroke-opacity="1" />
   </g>
</svg>