<?xml version='1.0' encoding='utf-8'?>
<svg xmlns="http://www.w3.org/2000/svg" id="spongy_output" version="1.1" viewBox="-91.6118250821082 -93.8194597290884 292.595111895194 272.876208041396" author="Steven QiaoggPlantmap">)
<g id="W15_spongy"><path d="M20.2 6.78 L36.03 6.18 L39.04 7.39 L42.06 8.74 L44.32 10.7 L46.28 12.21 L47.94 13.57 L49.6 16.13 L50.5 18.39 L50.5 32.41 L49.76 34.29 L48.92 35.78 L47.37 37.39 L45.87 38.59 L44.62 39.6 L43.13 40.5 L17.32 40.5 L15.95 39.9 L14.87 38.88 L13.74 37.93 L12.6 36.85 L11.65 35.96 L11.05 35.36 L10.03 34.4 L9.2 33.21 L8.66 31.6 L8.39 16.78 L9.11 15.08 L10 13.63 L11.45 11.94 L12.9 10.57 L14.6 9.11 L16.62 7.98 L18.23 7.26 Z" id="1" fill="none" stroke="#000" stroke-width="4" stroke-linecap="butt" stroke-linejoin="miter" stroke-opacity="1" /><path d="M46.34 46.44 L66.63 46.74 L68.71 47.53 L70.31 48.63 L71.8 49.52 L73.49 50.52 L74.48 51.71 L75.58 53.1 L76.77 54.79 L77.76 56.58 L77.76 70.11 L77.07 72.29 L75.87 73.59 L74.38 74.78 L73.09 75.87 L71.9 76.97 L70.5 78.06 L68.91 78.66 L67.72 78.76 L47.73 79.06 L45.84 78.76 L43.85 77.96 L42.26 76.97 L40.57 75.78 L39.18 74.88 L38.29 73.69 L37.19 72.39 L36.5 69.91 L36.4 56.38 L36.89 54.3 L37.59 52.61 L38.78 50.82 L40.87 49.03 L42.86 47.93 L44.65 47.24 Z" id="3" fill="none" stroke="#000" stroke-width="4" stroke-linecap="butt" stroke-linejoin="miter" stroke-opacity="1" /><path d="M58.48 17.53 L58.58 30.71 L59.48 32.39 L59.97 33.56 L60.59 34.86 L61.82 36.22 L63.37 37.64 L64.72 38.19 L66.7 38.99 L91.07 39.06 L93.01 38.36 L94.59 37.49 L95.9 36.61 L96.87 35.82 L98.18 34.51 L99.06 33.11 L99.84 31.88 L100.55 30.3 L100.81 28.9 L100.98 27.85 L100.9 17.6 L100.37 15.24 L99.23 13.93 L97.92 12.79 L96.34 11.47 L94.68 10.42 L93.1 9.28 L91.09 7.97 L88.98 6.74 L70.15 6.66 L67.79 7.88 L65.86 8.76 L63.94 10.16 L62.27 11.21 L60.52 12.96 L58.94 14.89 Z" id="2" fill="none" stroke="#000" stroke-width="4" stroke-linecap="butt" stroke-linejoin="miter" stroke-opacity="1" /></g></svg>